<?xml version="1.0" encoding="utf-8"?>
<!-- Generator: Adobe Illustrator 25.4.1, SVG Export Plug-In . SVG Version: 6.00 Build 0)  -->
<svg version="1.1" id="Layer_1" xmlns="http://www.w3.org/2000/svg" xmlns:xlink="http://www.w3.org/1999/xlink" x="0px" y="0px"
	 viewBox="0 0 612 254" style="enable-background:new 0 0 612 254;" xml:space="preserve">
<style type="text/css">
	.st0{fill:url(#SVGID_1_);}
	.st1{fill:url(#SVGID_00000031899675829673914930000014089665158240803480_);}
	.st2{fill:url(#SVGID_00000023251217768698085010000013046402810417182876_);}
	.st3{fill:url(#SVGID_00000060745661391571549430000005820285006464185766_);}
	.st4{fill:url(#SVGID_00000173130307075579477640000003976385523666695586_);}
	.st5{fill:url(#SVGID_00000146486848373904881970000008202054015581832849_);}
	.st6{fill:url(#SVGID_00000111877839661902816220000014426155465211105461_);}
	.st7{fill:#7A0300;}
	.st8{fill:#004677;}
	.st9{fill:#F81528;}
</style>
<g>
	<path d="M281.9,246.9c-0.9,0-1.8,0-2.8,0c-0.3-0.5-0.6-1.1-0.9-1.7c-0.4,0.2-0.7,0.4-1.1,0.6c-2.3,1.6-4.9,1.9-7.5,1.5
		c-2.4-0.3-4.2-2-4.4-4.1c-0.3-2.5,0.8-4.6,3.2-5.5c1.5-0.6,3.2-0.7,4.8-1c1.6-0.3,3.2-0.6,4.7-0.8c0.5-2.7-0.4-4-2.8-4.4
		c-0.5-0.1-0.9-0.1-1.4-0.1c-2.4-0.1-4.3,0.5-5.1,3.3c-1-0.1-2-0.3-3-0.4c0.4-2.3,1.6-3.8,3.6-4.6c2.8-1,5.7-1.2,8.5-0.3
		c2.3,0.7,3.3,2.1,3.4,4.5c0.1,2.1,0,4.2,0.1,6.3c0,1.1,0,2.2,0.1,3.3C281.4,244.6,281.7,245.7,281.9,246.9z M278,238.4
		c-2.3,0.4-4.5,0.8-6.6,1.1c-0.4,0.1-0.8,0.2-1.1,0.3c-1.2,0.5-1.9,1.4-1.9,2.5c0,1.1,0.8,2.2,1.9,2.5c2.2,0.6,4.3,0.4,6.1-1.1
		C278.1,242.3,278.3,240.4,278,238.4z"/>
	<g>
		<path d="M539.3,123.4c0.9-2.8,2.4-7.5,2.4-7.5h3.4l0.6,11.2h-2.4l-0.4-7.9l-0.3,0l-2.5,7.7h-2.1l-2-7.4l-0.3,0l-0.4,7.6H533
			l0.7-11.2h3.5C537.2,115.9,538.5,120.6,539.3,123.4z"/>
		<polygon points="526,117.9 522.9,117.9 522.9,115.8 531.4,115.8 531.4,117.9 528.5,117.9 528.5,127.1 526,127.1 		"/>
	</g>
	<g>
		<path d="M462.9,246.9c-0.9,0-1.8,0-2.8,0c-0.3-0.5-0.6-1.1-0.9-1.7c-0.4,0.2-0.7,0.4-1.1,0.6c-2.3,1.6-4.9,1.9-7.5,1.5
			c-2.4-0.3-4.2-2-4.4-4.1c-0.3-2.5,0.8-4.6,3.2-5.5c1.5-0.6,3.2-0.7,4.8-1c1.6-0.3,3.2-0.6,4.7-0.8c0.5-2.7-0.4-4-2.8-4.4
			c-0.5-0.1-0.9-0.1-1.4-0.1c-2.4-0.1-4.3,0.5-5.1,3.3c-1-0.1-2-0.3-3-0.4c0.4-2.3,1.6-3.8,3.6-4.6c2.8-1,5.7-1.2,8.5-0.3
			c2.3,0.7,3.3,2.1,3.4,4.5c0.1,2.1,0,4.2,0.1,6.3c0,1.1,0,2.2,0.1,3.3C462.4,244.6,462.7,245.7,462.9,246.9z M459,238.3
			c-2.3,0.4-4.5,0.8-6.6,1.1c-0.4,0.1-0.8,0.2-1.1,0.3c-1.2,0.5-1.9,1.4-1.9,2.5c0,1.1,0.8,2.2,1.9,2.5c2.2,0.6,4.3,0.4,6.1-1.1
			C459.1,242.3,459.3,240.4,459,238.3z"/>
		<path d="M519.6,239c-4.7,0-9.2,0-13.7,0c0,3,1.5,5.2,4,5.8c2.7,0.7,4.6-0.2,6.7-3.4c0.9,0.1,1.8,0.2,2.8,0.3
			c-0.5,2.9-2.6,5.1-5.6,5.5c-1.5,0.2-3.2,0.2-4.7,0c-3.2-0.6-5.3-2.6-6.1-5.7c-0.6-2.2-0.6-4.4,0.1-6.6c1.1-4,4.7-6.3,9-6
			c4.1,0.3,7.1,3.1,7.6,7.2C519.7,237,519.6,237.8,519.6,239z M506.1,236.4c3.5,0,6.8,0,10.1,0c-0.1-3-1.9-4.9-4.7-5
			C508.6,231.2,506.5,233.1,506.1,236.4z"/>
		<path d="M404.2,247.4h-2.9v-17.7l2.9,0l0,2.3c0,0,2.9-3.3,8-2.3c2.3,0.6,3.9,2.1,4,4.3c0,0.9,0.3,13.4,0.3,13.4h-3.1
			c0,0-0.1-8.8-0.1-11.4c0-5.1-9-4.4-9,1.4C404.2,239.7,404.2,247.4,404.2,247.4z"/>
		<path d="M492.2,243.7c1.9-4.9,3.6-9.4,5.3-13.9c1.1,0,2,0,3.2,0c-2.4,6-4.7,11.8-7,17.6c-1.1,0-2,0-3.1,0
			c-2.3-5.8-4.6-11.6-7-17.6c1.2,0,2.2,0,3.3,0C488.6,234.2,490.3,238.7,492.2,243.7z"/>
		<path d="M429.9,231.8l-2.2,0v-2.6l2.2,0l0-4.5l3.1-1.4v5.9l3,0v2.6l-3,0c0,0-0.1,7.4,0,10.3c0,2.8,1.5,2.8,3.2,2.7
			c0.1,0.7,0.3,1.5,0.4,2.2c-1.5,0.5-2.9,0.5-4.2,0.2c-1.6-0.4-2.4-1.4-2.4-3.3C429.8,241.1,429.9,231.8,429.9,231.8z"/>
		<path d="M468.1,231.8l-2.2,0v-2.6l2.2,0l0-4.5l3.1-1.4v5.9l3,0v2.6l-3,0c0,0-0.1,7.4,0,10.3c0,2.8,1.5,2.8,3.2,2.7
			c0.1,0.7,0.3,1.5,0.4,2.2c-1.5,0.5-2.9,0.5-4.2,0.2c-1.6-0.4-2.4-1.4-2.4-3.3C468.1,241.1,468.1,231.8,468.1,231.8z"/>
		<path d="M392.2,223.2c1.1,0,2.1,0,3.2,0c0,8.1,0,16.1,0,24.2c-1,0-2,0-3.2,0C392.2,239.4,392.2,231.4,392.2,223.2z"/>
		<g>
			<path d="M477.7,229.8c1,0,1.9,0,2.8,0c0,5.9,0,11.7,0,17.6c-1,0-1.8,0-2.8,0C477.7,241.6,477.7,235.8,477.7,229.8z"/>
			<path d="M477.7,223.1c1,0,1.8,0,2.8,0c0,1.1,0,2.1,0,3.2c-0.9,0-1.8,0-2.8,0C477.7,225.3,477.7,224.3,477.7,223.1z"/>
		</g>
		<g>
			<rect x="421.4" y="229.9" width="3" height="17.5"/>
			<path d="M424.3,223.2c0,1,0,2,0,3.1c-0.9,0-1.9,0-2.9,0c0-1,0-2,0-3.1C422.3,223.2,423.1,223.2,424.3,223.2z"/>
		</g>
		<g>
			<rect x="439.4" y="229.9" width="3" height="17.5"/>
			<path d="M442.3,223.2c0,1,0,2,0,3.1c-0.9,0-1.9,0-2.9,0c0-1,0-2,0-3.1C440.3,223.2,441.1,223.2,442.3,223.2z"/>
		</g>
	</g>
	<g>
		<linearGradient id="SVGID_1_" gradientUnits="userSpaceOnUse" x1="133.76" y1="164.1163" x2="342.3084" y2="164.1163">
			<stop  offset="0" style="stop-color:#FFCB08"/>
			<stop  offset="1" style="stop-color:#EA690A"/>
		</linearGradient>
		<path class="st0" d="M7,163.8c0.2-4.4,0.2-8.8,0.7-13.1c0.5-4.6,1.2-9.3,2.5-13.7c2.6-9.4,9.2-15.3,18.1-18.9
			c4.3-1.7,8.9-2.6,13.6-2.9c3.7-0.3,7.3-0.3,11,0.1c9,0.9,17.3,3.7,23.9,10.3c4.4,4.5,7,9.9,7.9,16.1c1.2,7.7,1.9,15.4,1.9,23.1
			c-0.1,7.8-0.2,15.6-2.2,23.2c-1.7,6.4-4.3,12.2-9.5,16.6c-4.5,3.8-9.6,6.2-15.3,7.4c-8.7,1.8-17.5,1.9-26.1-0.2
			c-7.7-1.9-14.3-5.8-19.1-12.4c-2.9-4-4.4-8.6-5.4-13.4C7.3,178.6,7.1,171.2,7,163.8z"/>
		
			<linearGradient id="SVGID_00000114781284708097451270000001946603508504222086_" gradientUnits="userSpaceOnUse" x1="133.76" y1="145.2805" x2="342.3084" y2="145.2805">
			<stop  offset="0" style="stop-color:#FFCB08"/>
			<stop  offset="1" style="stop-color:#EA690A"/>
		</linearGradient>
		<path style="fill:url(#SVGID_00000114781284708097451270000001946603508504222086_);" d="M346.1,115.9c0-12.9,0-25.4,0-38.1
			c6.8,0,13.5,0,20.3,0c0,0.6,0.1,1.1,0.1,1.7c0,34,0.2,68-0.1,101.9c-0.1,12.7-6.1,22.3-18,27.7c-4.4,2-8.9,3.1-13.7,3.4
			c-6.4,0.5-12.9,0.5-19.2-1.1c-6.3-1.5-11.9-4.4-16.6-8.9c-4.2-4-6.6-8.9-8.1-14.4c-1.6-6.2-2.1-12.5-2.3-18.9
			c-0.3-9.1,0.5-18.1,2.1-27c2.1-11.8,9.3-19.5,20.5-23.6c5.4-2,10.9-2.7,16.6-2.7c5.3-0.1,10.6,0,15.9,0
			C344.3,115.9,345,115.9,346.1,115.9z M346,135.2c-0.6-0.1-0.9-0.1-1.2-0.1c-5.6,0-11.3-0.1-16.9,0c-3,0-6,0.6-8.8,1.7
			c-5.1,1.9-7.9,5.6-8.6,11c-1,7.5-1.3,15-1.2,22.6c0.1,4.7,0.6,9.3,1.9,13.8c1.2,4.2,3.8,7,7.9,8.3c1.8,0.6,3.7,0.9,5.6,1.1
			c4.6,0.4,9.2,0.3,13.6-1.3c3.9-1.4,6.4-4,7.4-8c0.3-1.2,0.4-2.5,0.4-3.7c0-14.4,0-28.8,0-43.3C346,136.7,346,136.1,346,135.2z"/>
		
			<linearGradient id="SVGID_00000105390833755310010430000002405849396759093634_" gradientUnits="userSpaceOnUse" x1="133.76" y1="145.35" x2="342.3084" y2="145.35">
			<stop  offset="0" style="stop-color:#FFCB08"/>
			<stop  offset="1" style="stop-color:#EA690A"/>
		</linearGradient>
		<path style="fill:url(#SVGID_00000105390833755310010430000002405849396759093634_);" d="M97.9,77.4c6.7,0,13.1,0,19.7,0
			c0.1,0.9,0.1,1.8,0.1,2.6c0,11.5,0,23.1,0,34.6c0,0.8,0.1,1.7,0.1,2.7c0.7-0.1,1.2-0.2,1.7-0.3c4.4-1.6,9-2.1,13.7-2.3
			c6.1-0.2,12.1,0.2,17.9,2c8.5,2.6,15.3,7.4,19.5,15.4c1.9,3.7,2.9,7.7,3.4,11.8c1,7.8,1.8,15.6,1.6,23.5c-0.2,7-0.6,14-2.3,20.9
			c-2.2,8.9-7.3,15.6-15.4,19.9c-5.2,2.8-10.8,4.2-16.7,4.7c-4.1,0.3-8.1,0.3-12.2-0.1c-9.6-1-18.1-4.2-24.5-11.8
			c-3.5-4.2-5.3-9.3-6.3-14.6c-0.3-1.7-0.4-3.4-0.4-5.1c0-33.7,0-67.4,0-101.2C97.9,79.4,97.9,78.6,97.9,77.4z M117.7,164
			c0,6-0.1,11.9,0,17.9c0.1,4.3,1.8,7.9,5.6,10.2c1.4,0.9,3,1.7,4.6,2.1c5.2,1.4,10.4,1.3,15.5-0.1c5-1.4,8.6-4.5,9.7-9.8
			c0.7-3.5,1.5-7,1.6-10.5c0.3-7.4,0.4-14.8-0.3-22.2c-0.3-2.7-0.7-5.5-1.3-8.1c-1-4.3-4-7-7.8-8.8c-2.3-1.1-4.8-1.7-7.4-1.9
			c-5.1-0.4-10.1,0.2-14.5,3.2c-3.8,2.6-5.9,6.1-5.8,10.9C117.8,152.6,117.7,158.3,117.7,164z"/>
		
			<linearGradient id="SVGID_00000110435000403783223140000009851247502296342967_" gradientUnits="userSpaceOnUse" x1="133.76" y1="143.9913" x2="342.3084" y2="143.9913">
			<stop  offset="0" style="stop-color:#FFCB08"/>
			<stop  offset="1" style="stop-color:#EA690A"/>
		</linearGradient>
		<path style="fill:url(#SVGID_00000110435000403783223140000009851247502296342967_);" d="M416.2,210.9c-7,0-13.7,0-20.3,0
			c-0.4-1.5-0.6-129.9-0.2-133.6c1.4-0.4,18.1-0.5,20.4,0c0,12.8,0,25.7,0,38.5c3,0,5.8,0,8.6,0c5.7,0.1,11.4,0.1,17.1,0.4
			c2,0.1,4,0.9,5.9,1.3c3.9,1,7.6,2.4,11,4.6c3.4,2.2,6.4,4.8,8.7,8.2c1.9,2.9,3,6.1,3,9.6c0,23,0,45.9,0,68.9c0,0.6,0,1.2,0,1.7
			c-1.5,0.5-18.1,0.6-20.4,0.1c0-0.7,0-1.5,0-2.3c0-20.3,0-40.6,0-60.8c0-3-1.1-5.4-3.2-7.3c-5-4.5-10.9-6.5-17.6-6
			c-3.9,0.3-7.8,1-11.7,1.5c-0.4,0.1-0.7,0.2-1.3,0.4C416.2,161.1,416.2,185.9,416.2,210.9z"/>
		
			<linearGradient id="SVGID_00000079449865034240991610000015299325643812841879_" gradientUnits="userSpaceOnUse" x1="133.76" y1="164.2125" x2="342.3084" y2="164.2125">
			<stop  offset="0" style="stop-color:#FFCB08"/>
			<stop  offset="1" style="stop-color:#EA690A"/>
		</linearGradient>
		<path style="fill:url(#SVGID_00000079449865034240991610000015299325643812841879_);" d="M192.4,164.3c-0.1-7.9,0.7-15.7,2.2-23.5
			c2.2-11.8,9.3-19.2,20.3-23.3c6.9-2.6,14.2-3.1,21.5-2.7c4.6,0.3,9.1,1,13.5,2.6c8.4,3.1,14.9,8.4,18.6,16.8
			c1.4,3.3,2.2,6.7,2.5,10.3c0.6,6.3,1.3,12.7,1.4,19c0.1,8.1-0.2,16.2-2.1,24.2c-3,12.7-10.8,20.8-23.3,24.1
			c-9.6,2.6-19.4,2.5-29,0c-5.5-1.4-10.3-4.1-14.5-8c-5.1-4.6-7.6-10.6-9.1-17.1c-1-4.4-1.5-8.9-1.6-13.5
			C192.6,170.3,192.5,167.3,192.4,164.3z M213.2,165.5c0,1.6,0,3.1,0,4.7c0.1,4.5,0.5,8.9,1.5,13.3c1.2,5,4,8.5,8.9,10.2
			c6.1,2.1,12.2,2.1,18.3-0.2c4.1-1.5,6.9-4.4,7.8-8.7c0.8-3.4,1.5-6.9,1.8-10.4c0.3-3.5,0-7.1,0.1-10.6c0.1-6.1-0.6-12-1.3-18
			c-0.7-5.5-3.8-9.2-8.8-11.1c-6.2-2.4-12.5-2.3-18.6,0.4c-4.6,2-7.5,5.4-8.2,10.5C213.7,152.1,213,158.8,213.2,165.5z"/>
		
			<linearGradient id="SVGID_00000003084069322387212510000013452867419394869920_" gradientUnits="userSpaceOnUse" x1="133.76" y1="163.4043" x2="342.3084" y2="163.4043">
			<stop  offset="0" style="stop-color:#FFCB08"/>
			<stop  offset="1" style="stop-color:#EA690A"/>
		</linearGradient>
		<path style="fill:url(#SVGID_00000003084069322387212510000013452867419394869920_);" d="M519.5,210.9c-6.8,0-13.4,0-20.2,0
			c0-31.7,0-63.3,0-95c6.7,0,13.4,0,20,0C519.7,117.4,519.9,206.3,519.5,210.9z"/>
		
			<linearGradient id="SVGID_00000009558807213963384310000008944042978793907358_" gradientUnits="userSpaceOnUse" x1="133.76" y1="89.0754" x2="342.3084" y2="89.0754">
			<stop  offset="0" style="stop-color:#FFCB08"/>
			<stop  offset="1" style="stop-color:#EA690A"/>
		</linearGradient>
		<path style="fill:url(#SVGID_00000009558807213963384310000008944042978793907358_);" d="M603.3,76.7c-9-4.4-18.4-7.7-28.3-9.2
			c-6.8-1-13.7-1.1-20.5,0.3c-1.7,0.3-3.4,0.8-5.2,1.2c0-0.2,0.1-0.3,0.1-0.4c-3.1,4.4-6.9,8.6-11.3,12.5c-4.6,4-9.8,7.7-15.6,11
			c-4.1,2.3-7.9,4.1-10.7,5.3c0.2-0.1,0.5-0.1,0.7-0.2c-0.7,1.1-1.2,1.9-1.9,2.9c1.4,0,2.5,0.1,3.6,0c6.5-0.5,12.7-1.8,18.7-4.3
			c3.9-1.6,7.6-3.5,11.4-5.3c8.6-4.1,17.6-6.4,27-7.2c3.4-0.3,6.9-0.4,10.3,0.2c-0.9,0.3-1.9,0.4-2.8,0.6
			c-9.9,1.5-19.5,4.3-28.6,8.4c-3.7,1.7-7.3,3.6-11,5.3c-8.1,3.6-16.6,5.3-25.5,4.5c-0.7-0.1-1.4,0-2.6,0c0.8,0.4,1.2,0.7,1.6,0.9
			c4.5,1.7,9,3.6,13.6,5c11,3.4,22.3,4.3,33.6,2.2c7.4-1.3,14-4.4,19.1-10.1c3.3-3.7,6.5-7.3,9.9-11c4.4-4.8,9.2-9,15.4-11.2
			c0.1-0.1,0.3-0.2,0.5-0.4C604.4,77.3,603.9,77,603.3,76.7z"/>
	</g>
	<path class="st7" d="M522.8,63.6c4.4-11.9,11.3-22.3,20.4-31.2c0.8-0.7,1.6-1.4,2.4-2.1c0,0.4-0.1,0.6-0.3,0.9
		c-9,11.6-15.5,24.6-19.8,38.6c-3,9.7-8,18.2-15.2,25.4c-1.5,1.5-3.1,2.8-4.9,4.5c2.2-0.5,4.1-1.3,6.1-2.1
		c2.9-1.2,40-13.7,44.9-44.8c0.8-5,0.4-9.8,0.2-14.7c-0.2-5-0.6-9.9-0.6-14.9c0-4.8,0.8-9.5,2.9-13.9c0.2-0.5,0.4-1,0.7-1.8
		c-0.6,0.1-0.9,0.2-1.2,0.3c-7.5,2.5-14.8,5.6-21.7,9.6c-6.9,4-13.2,8.8-18.6,14.7c-9,9.8-13.8,21.7-16.1,34.7
		c-1.5,8.9-1.1,17.9,0.6,26.8c0.3,1.7,0.6,3.4,1,5.4c0.4-0.3,0.6-0.5,0.7-0.7c5.9-6.2,10.4-13.3,13.7-21.2
		C519.8,72.7,521.2,68,522.8,63.6z"/>
	<path d="M74.9,169.7c-13.7,0-27.4,0-40.9,0c-0.2,0.3-0.4,0.3-0.4,0.4c-0.4,4,0.1,7.9,2.3,11.3c1.2,2,3.1,3.2,5.3,3.8
		c3.7,1,7.5,1.1,11.3,0c2.7-0.8,4.8-2.4,5.9-5.1c0.3-0.9,0.7-1.5,1.8-1.5c4.3,0,8.5,0,12.8,0c0.2,0,0.5,0.1,0.8,0.2
		c0,0.5,0,0.9-0.1,1.4c-1.4,7.1-4.9,12.6-11.7,15.8c-4.2,2-8.5,3-13.1,3.1c-4.1,0.1-8.3,0-12.3-1.2c-9.6-2.8-15.5-9-17.1-19
		c-1.1-6.8-1.4-13.6-1-20.4c0.2-4,0.9-8.1,1.7-12.1c1-4.8,3.7-8.5,7.5-11.5c4.2-3.3,9.1-4.9,14.3-5.7c5.5-0.8,11-0.4,16.3,1.4
		c9,3.1,14.3,9.2,15.8,18.7c1,6,1.1,12,1,18C75.1,168.2,75,168.8,74.9,169.7z M59.9,156.4c-0.3-2-0.5-3.7-0.8-5.5
		c-0.9-5.3-4.7-7.2-8.6-8c-2.3-0.5-4.7-0.5-7,0c-6.9,1.2-9.7,5.4-9.3,13.5C42.6,156.5,51.1,156.5,59.9,156.4z"/>
	<g>
		<path class="st8" d="M328.8,247.4c0.1-0.4,0.1-0.7,0.2-1.1c0.3-1.7,0.6-3.4,0.9-5.1c0.3-1.6,0.6-3.2,0.9-4.7
			c0.3-1.7,0.6-3.4,0.9-5.1c0.3-1.6,0.6-3.3,0.9-4.9c0.1-0.6,0.3-1.2,0.6-1.8c0.6-1,1.5-1.5,2.6-1.6c0.2,0,0.4,0,0.6,0
			c6,0,12.1,0,18.1,0c1.3,0,2.2,0.8,2.3,2.1c0.1,0.6-0.1,1.1-0.2,1.7c-0.3,1.7-0.6,3.4-0.9,5c-0.3,1.6-0.6,3.3-0.9,4.9
			c-0.1,0.5-0.2,1-0.5,1.4c-0.6,1-1.4,1.5-2.5,1.7c-0.3,0-0.5,0.1-0.8,0.1c-5.2,0-10.4,0-15.5,0c-0.2,0-0.2,0.1-0.3,0.2
			c-0.4,2-0.8,4-1.2,6.1c-0.1,0.4-0.1,0.7-0.2,1.1c0,0.1,0,0.1-0.1,0.1C332.1,247.4,330.5,247.4,328.8,247.4
			C328.8,247.4,328.8,247.4,328.8,247.4z M344.2,228.1c-1.8,0-3.6,0-5.4,0c-0.9,0-1.5,0.5-1.7,1.3c-0.2,1-0.4,2-0.6,3
			c-0.1,0.4-0.2,0.9-0.2,1.3c0,0.5,0.3,0.8,0.7,0.9c0.2,0.1,0.4,0.1,0.6,0.1c3.5,0,7,0,10.5,0c0.2,0,0.3,0,0.5,0
			c0.9-0.1,1.6-0.7,1.7-1.7c0.1-0.4,0.1-0.8,0.2-1.2c0.1-0.8,0.3-1.7,0.4-2.5c0.1-0.6-0.2-1.1-0.9-1.3c-0.2,0-0.4-0.1-0.5-0.1
			C347.8,228.1,346,228.1,344.2,228.1z"/>
		<path class="st8" d="M359.3,223.1c1.7,0,3.4,0,5.1,0c0,0.2-0.1,0.5-0.1,0.7c-0.3,1.9-0.7,3.7-1,5.6c-0.4,2-0.7,4-1.1,5.9
			c-0.3,1.6-0.6,3.1-0.8,4.7c-0.1,0.3-0.1,0.6-0.1,1c0,0.1,0,0.3,0.1,0.4c0.1,0.5,0.5,0.8,1,0.8c0.2,0,0.3,0,0.5,0
			c5.7,0,11.4,0,17.1,0c0.1,0,0.1,0,0.2,0c-0.1,0.3-0.1,0.5-0.2,0.8c-0.3,1.4-0.6,2.9-0.9,4.3c0,0.1-0.1,0.2-0.2,0.2c-7,0-14,0-21,0
			c-1.3-0.2-2.1-0.9-2.3-2c-0.1-0.5,0-1.1,0.1-1.6c0.3-1.7,0.6-3.4,0.9-5.2c0.3-1.7,0.6-3.4,0.9-5.1c0.3-1.6,0.6-3.2,0.9-4.8
			c0.3-1.5,0.5-3.1,0.8-4.6C359.2,223.8,359.3,223.4,359.3,223.1z"/>
		<path class="st8" d="M296.4,236c1.6,0.4,3.2,0.7,4.9,1.1c-0.1,0.3-0.1,0.5-0.1,0.8c-0.2,0.9-0.3,1.7-0.5,2.6c0,0.3,0,0.6,0,0.8
			c0.1,0.5,0.5,0.8,1,0.9c0.1,0,0.1,0,0.2,0c3.6,0,7.3,0,10.9,0c0.7,0,1.3-0.4,1.6-1c0.2-0.3,0.3-0.7,0.4-1.1
			c0.1-0.5,0.2-1.1,0.4-1.6c0-0.1,0.1-0.1,0.2-0.1c0.6,0,1.2,0,1.8,0c1,0,1.9,0,2.9,0c0.1,0,0.1,0,0.2,0c-0.1,0.4-0.1,0.7-0.2,1
			c-0.3,1.7-0.6,3.4-0.9,5.1c-0.2,1.1-1,3-3.6,3c-6.1,0-12.2,0-18.3,0c-1.3,0-2.4-1-2.3-2.3c0-0.6,0.1-1.1,0.2-1.7
			c0.2-1.5,0.5-2.9,0.8-4.4C296,238.1,296.2,237.1,296.4,236C296.3,236,296.3,236,296.4,236z"/>
		<path class="st8" d="M322.9,223c-0.3,1.7-0.6,3.3-0.9,4.9c-0.1,0-0.2,0-0.2,0c-5.6,0-11.2,0-16.8,0c-0.8,0-1.4,0.2-1.9,0.8
			c-0.3,0.4-0.5,0.8-0.6,1.3c-0.2,1.4-0.4,2.7-0.6,4.1c0,0.2-0.1,0.3-0.1,0.5c-1.7-0.1-3.5-0.1-5.2-0.2c0-0.1,0-0.1,0-0.1
			c0.4-2,0.8-4,1.2-6c0.1-0.7,0.3-1.5,0.4-2.2c0.1-0.5,0.2-0.9,0.4-1.4c0.5-1,1.3-1.5,2.3-1.7c0.3,0,0.6-0.1,0.9-0.1
			c7,0,14,0,20.9,0C322.7,223,322.8,223,322.9,223z"/>
		<polygon class="st8" points="329.2,228 325.6,247.4 320.6,247.4 324.2,228 		"/>
		<path class="st9" d="M320.9,234.7c-0.2,1.1-0.5,2.2-0.7,3.2c-0.1,0-0.1,0-0.2,0c-1.6-0.1-3.1-0.1-4.7-0.2c-1,0-2-0.1-3-0.2
			c-1.1-0.1-2.1-0.2-3.2-0.2c-1-0.1-2-0.2-3-0.3c-1-0.1-2-0.2-3.1-0.3c-1.2-0.1-2.3-0.3-3.5-0.5c-2.8-0.4-5.6-0.9-8.4-1.7
			c0,0-0.1,0-0.1,0C301,235,310.9,235.2,320.9,234.7z"/>
		<polygon class="st8" points="324.4,227 325.1,223.1 330.2,223.1 329.4,227 		"/>
	</g>
</g>
</svg>
