<svg xmlns="http://www.w3.org/2000/svg" viewBox="0 0 400 170" role="img" aria-label="AI Creator, Grades 7-8">
  <defs>
    <linearGradient id="bg" x1="0" y1="0" x2="1" y2="1">
      <stop offset="0" stop-color="#8b5cf6"/>
      <stop offset="1" stop-color="#a855f7"/>
    </linearGradient>
    <pattern id="dots" width="22" height="22" patternUnits="userSpaceOnUse">
      <circle cx="2" cy="2" r="1.4" fill="rgba(255,255,255,0.35)"/>
    </pattern>
  </defs>
  <rect width="400" height="170" fill="url(#bg)"/>
  <rect width="400" height="170" fill="url(#dots)"/>
  <circle cx="352" cy="16" r="58" fill="rgba(255,255,255,0.12)"/>
  <circle cx="40" cy="164" r="44" fill="rgba(255,255,255,0.10)"/>
  <!-- teen behind a desk, waist-up -->
  <g transform="translate(236,74)">
    <path d="M-30 -18 Q -42 -4 -38 14" stroke="#fcd9b8" stroke-width="11" stroke-linecap="round" fill="none"/>
    <path d="M30 -18 Q 42 -4 38 14" stroke="#fcd9b8" stroke-width="11" stroke-linecap="round" fill="none"/>
    <path d="M-24 -34 h48 a9 9 0 0 1 9 9 v32 h-66 v-32 a9 9 0 0 1 9 -9 z" fill="#ffffff"/>
    <circle cx="0" cy="-56" r="17" fill="#1c1917"/>
    <circle cx="0" cy="-51" r="14.5" fill="#fcd9b8"/>
    <path d="M-14.5 -54 q14.5 -11 29 0 l-2 -8 q-12.5 -6 -25 0 z" fill="#1c1917"/>
    <circle cx="-5.5" cy="-52" r="1.9" fill="#1e293b"/>
    <circle cx="5.5" cy="-52" r="1.9" fill="#1e293b"/>
    <path d="M-5 -45 Q 0 -41.5 5 -45" stroke="#1e293b" stroke-width="2" stroke-linecap="round" fill="none"/>
  </g>
  <!-- desk with laptop back facing viewer -->
  <g transform="translate(236,132)">
    <rect x="-96" y="-16" width="192" height="12" rx="6" fill="#ffffff"/>
    <rect x="-84" y="-4" width="10" height="36" fill="#ffffff" opacity="0.85"/>
    <rect x="74" y="-4" width="10" height="36" fill="#ffffff" opacity="0.85"/>
    <rect x="-26" y="-46" width="52" height="34" rx="4" fill="#1e293b"/>
    <circle cx="0" cy="-29" r="4.5" fill="#a855f7"/>
  </g>
  <!-- creative output floating on the left -->
  <g transform="translate(96,58)" fill="#fde047">
    <path d="M0 -15 L3.7 -4.7 L14.3 -4.7 L5.8 1.8 L9 12.2 L0 5.8 L-9 12.2 L-5.8 1.8 L-14.3 -4.7 L-3.7 -4.7 Z"/>
  </g>
  <g transform="translate(64,110)" font-family="Arial, sans-serif" font-weight="bold" font-size="28" fill="#ffffff" opacity="0.92">
    <text>♪</text>
  </g>
  <g transform="translate(120,132)">
    <circle cx="0" cy="0" r="13" fill="#ffffff" opacity="0.92"/>
    <path d="M-5 1 l3.5 3.5 l6.5 -7" stroke="#7c3aed" stroke-width="3" stroke-linecap="round" stroke-linejoin="round" fill="none"/>
  </g>
  <g transform="translate(330,120)" font-family="monospace" font-weight="bold" font-size="20" fill="#ffffff" opacity="0.88">
    <text>&lt;/&gt;</text>
  </g>
</svg>
